<svg width="32" height="32" viewBox="0 0 32 32" fill="none" xmlns="http://www.w3.org/2000/svg">
<rect width="32" height="32" rx="16" fill="#1C1E1B"/>
<path d="M8 17C9.78309 17.2119 11.443 18.0175 12.7128 19.2872C13.9825 20.557 14.7881 22.2169 15 24C15.8839 23.4904 16.6233 22.7638 17.1482 21.8889C17.6732 21.014 17.9663 20.0197 18 19C19.6791 18.4093 21.1454 17.334 22.2133 15.91C23.2813 14.486 23.9031 12.7773 24 11C24 10.2044 23.6839 9.44129 23.1213 8.87868C22.5587 8.31607 21.7956 8 21 8C19.2227 8.09691 17.514 8.71867 16.09 9.78665C14.666 10.8546 13.5907 12.3209 13 14C11.9803 14.0337 10.986 14.3268 10.1111 14.8518C9.23617 15.3767 8.50959 16.1161 8 17Z" stroke="#FF611F" stroke-width="2" stroke-linecap="round" stroke-linejoin="round"/>
<path d="M11 18C9.95922 18.5876 9.11765 19.4726 8.58315 20.5416C8.04865 21.6106 7.84559 22.8148 7.99999 24C9.18515 24.1544 10.3894 23.9513 11.4584 23.4168C12.5274 22.8823 13.4124 22.0408 14 21" stroke="#FF611F" stroke-width="2" stroke-linecap="round" stroke-linejoin="round"/>
<path d="M18 13C18 13.2652 18.1054 13.5196 18.2929 13.7071C18.4804 13.8946 18.7348 14 19 14C19.2652 14 19.5196 13.8946 19.7071 13.7071C19.8946 13.5196 20 13.2652 20 13C20 12.7348 19.8946 12.4804 19.7071 12.2929C19.5196 12.1054 19.2652 12 19 12C18.7348 12 18.4804 12.1054 18.2929 12.2929C18.1054 12.4804 18 12.7348 18 13Z" stroke="#FF611F" stroke-width="2" stroke-linecap="round" stroke-linejoin="round"/>
</svg>
